<svg width="24" height="24" viewBox="0 0 24 24" fill="none" xmlns="http://www.w3.org/2000/svg">
<path d="M2.25 12.76C2.25 14.36 3.373 15.754 4.957 15.987C6.025 16.144 7.105 16.266 8.195 16.351C8.661 16.388 9.088 16.632 9.348 17.022L12 21L14.652 17.022C14.912 16.632 15.339 16.388 15.805 16.352C16.895 16.266 17.975 16.144 19.043 15.987C20.627 15.754 21.75 14.361 21.75 12.759V6.741C21.75 5.139 20.627 3.746 19.043 3.513C16.711 3.17072 14.357 2.99926 12 3C9.608 3 7.256 3.175 4.957 3.513C3.373 3.746 2.25 5.14 2.25 6.741V12.759V12.76Z" stroke="black" stroke-width="1.5" stroke-linecap="round" stroke-linejoin="round"/>
</svg>
