<svg width="57" height="57" viewBox="0 0 57 57" fill="none" xmlns="http://www.w3.org/2000/svg">
<mask id="mask0_220_2501" style="mask-type:luminance" maskUnits="userSpaceOnUse" x="0" y="0" width="57" height="57">
<path d="M0 0H56.52V56.52H0V0Z" fill="white"/>
</mask>
<g mask="url(#mask0_220_2501)">
<path fill-rule="evenodd" clip-rule="evenodd" d="M28.26 11.9494C32.7638 11.9494 36.8438 13.7756 39.7913 16.7288C42.7444 19.6819 44.5706 23.7563 44.5706 28.26C44.5706 32.7638 42.7444 36.8438 39.7913 39.7913C36.8438 42.7444 32.7638 44.5706 28.26 44.5706C23.7563 44.5706 19.68 42.7444 16.7269 39.7913C13.7738 36.8438 11.9494 32.7638 11.9494 28.26C11.9494 23.7563 13.7738 19.6819 16.7269 16.7288C19.68 13.7756 23.7563 11.9494 28.26 11.9494ZM28.3388 5.80876C34.0331 5.83126 39.6938 8.00626 44.01 12.2475L48.1013 8.14876C53.7038 13.7513 56.5256 21.0431 56.52 28.3406H56.5144C56.5144 33.3469 55.1681 38.3775 52.4269 42.9056C51.7744 43.9856 51.0431 45.0338 50.2294 46.035L47.6831 43.4888C51.1744 38.985 52.9313 33.6169 52.9369 28.26H52.9481C52.9594 23.0119 51.2944 17.7694 47.94 13.3575L46.35 14.9475C49.3031 18.9431 50.745 23.6531 50.7225 28.3406H50.7113C50.6869 34.035 48.5138 39.6938 44.2781 44.01L48.3694 48.1013C42.7725 53.7038 35.4769 56.5256 28.1794 56.52V56.5144C23.1769 56.5144 18.1463 55.1681 13.62 52.4269C12.5325 51.7763 11.4919 51.0431 10.4831 50.2294L13.0313 47.6831C17.535 51.1744 22.9031 52.9313 28.26 52.9369V52.9481C33.5081 52.9594 38.7506 51.2944 43.1625 47.9419L41.5763 46.35C37.5769 49.3031 32.8669 50.745 28.1794 50.7225V50.7113C22.4906 50.6888 16.83 48.5138 12.5156 44.2781L8.41876 48.3694C2.82001 42.7725 -0.00561674 35.4769 8.38204e-06 28.1794H0.00563338C0.011258 23.1769 1.35001 18.1463 4.09688 13.62C4.74376 12.5325 5.47688 11.4919 6.28876 10.485L8.83501 13.0313C5.34563 17.535 3.58688 22.9031 3.58126 28.26H3.57001C3.56438 33.5081 5.22938 38.7506 8.57813 43.1625L10.17 41.5763C7.21688 37.5769 5.77313 32.8669 5.79751 28.1794H5.80876C5.83126 22.4906 8.00626 16.83 12.2475 12.5156L8.14876 8.41876C13.7513 2.82188 21.0431 -0.00561674 28.3388 8.3765e-06V0.00563338C33.3469 0.011258 38.3775 1.35001 42.9038 4.09688C43.9856 4.74376 45.0338 5.47688 46.035 6.28876L43.4888 8.83501C38.985 5.34563 33.6169 3.58876 28.26 3.58313V3.57001C23.0119 3.56438 17.7694 5.23126 13.3575 8.57813L14.9475 10.17C18.9431 7.21688 23.6531 5.77501 28.3388 5.79751V5.80876ZM47.1675 28.3406H47.1506C47.1788 23.5219 45.3769 18.6619 41.6231 14.9081C40.8788 14.1638 40.0781 13.4831 39.2194 12.87C35.8088 10.4438 32.0306 9.34501 28.3388 9.35626V9.36751C23.52 9.33938 18.6619 11.1488 14.9081 14.8969C14.1638 15.6413 13.4831 16.4475 12.87 17.3006C10.4438 20.7113 9.34501 24.4875 9.35626 28.1794H9.36751C9.33938 33.0038 11.1488 37.8619 14.8969 41.6119C15.6413 42.3563 16.4475 43.0369 17.3006 43.6481C20.7113 46.0819 24.4875 47.1731 28.1794 47.1675V47.1506C33.0038 47.1806 37.8619 45.3769 41.6119 41.6231C42.3544 40.8788 43.0369 40.0781 43.6481 39.2194C46.08 35.8088 47.1731 32.0306 47.1675 28.3406ZM24.4481 34.8581L14.6963 29.2275C14.9363 32.5969 16.395 35.6306 18.645 37.875C18.9881 38.2238 19.3538 38.55 19.7381 38.8594L25.5525 35.4994L24.4481 34.8581ZM14.8219 26.1769L20.6363 29.535V16.9969C19.9219 17.4825 19.2506 18.0394 18.645 18.645C16.6481 20.6419 15.2681 23.2575 14.8219 26.1769ZM23.3494 31.0988L28.26 33.9375L30.7144 32.5181L33.1706 31.0988V25.4213L28.26 22.5881L23.3494 25.4213V31.0988ZM33.1706 34.2225L22.3125 40.4963C24.1106 41.3719 26.13 41.8575 28.26 41.8575C29.9944 41.8575 31.6481 41.5369 33.1706 40.9481V34.2225ZM35.8819 26.9888V39.5231C36.5981 39.0356 37.2675 38.4863 37.875 37.875C39.8719 35.8819 41.25 33.2681 41.7019 30.3431L35.8819 26.9888ZM32.0719 21.6619L41.8238 27.2925C41.5875 23.9213 40.1231 20.895 37.875 18.645C37.53 18.3019 37.1644 17.97 36.7875 17.6663L30.9656 21.0206L32.0719 21.6619ZM23.3494 22.2956L24.4481 21.6619L28.26 19.4569L34.2056 16.0294C32.4094 15.1538 30.3938 14.6625 28.26 14.6625C26.5313 14.6625 24.8719 14.9888 23.3494 15.5775V22.2956Z" fill="#3362CC"/>
</g>
</svg>
